<?xml version="1.0" encoding="UTF-8"?>
<svg id="Layer_1" xmlns="http://www.w3.org/2000/svg" version="1.1" viewBox="0 0 500 500">
  <!-- Generator: Adobe Illustrator 29.1.0, SVG Export Plug-In . SVG Version: 2.1.0 Build 142)  -->
  <defs>
    <style>
      .st0 {
        fill: #fff;
        fill-rule: evenodd;
      }

      .st1 {
        fill: #3e2f5b;
      }
    </style>
  </defs>
  <path class="st1" d="M500,250c0,138.1-111.9,250-250,250S0,388.1,0,250,111.9,0,250,0s250,111.9,250,250Z"/>
  <path class="st0" d="M250.1,95c-87.2,0-157.8,71-157.8,158.9s45.2,129.7,107.9,150.8c7.8,1.6,10.7-3.4,10.7-7.6s-.3-16.3-.3-29.5c-43.9,9.5-53-18.9-53-18.9-7.1-18.4-17.5-23.2-17.5-23.2-14.4-9.7,1-9.7,1-9.7,15.9,1.1,24.3,16.3,24.3,16.3,14.1,24.2,36.8,17.4,46,13.2,1.3-10.3,5.5-17.4,9.9-21.3-35-3.7-71.8-17.4-71.8-78.4s6.3-31.6,16.2-42.6c-1.6-3.9-7.1-20.3,1.6-42.1,0,0,13.3-4.2,43.4,16.3,12.9-3.5,26.1-5.2,39.4-5.3,13.3,0,26.9,1.8,39.4,5.3,30-20.5,43.4-16.3,43.4-16.3,8.6,21.8,3.1,38.2,1.6,42.1,10.2,11.1,16.2,25.3,16.2,42.6,0,61-36.8,74.5-72.1,78.4,5.7,5,10.7,14.5,10.7,29.5,0,21.3-.3,38.4-.3,43.7s2.9,9.2,10.7,7.6c62.7-21.1,107.9-80.5,107.9-150.8.3-87.9-70.5-158.9-157.5-158.9Z"/>
</svg>