<?xml version="1.0" encoding="UTF-8"?>
<svg id="Layer_1" xmlns="http://www.w3.org/2000/svg" version="1.1" viewBox="0 0 500 500">
  <!-- Generator: Adobe Illustrator 29.1.0, SVG Export Plug-In . SVG Version: 2.1.0 Build 142)  -->
  <defs>
    <style>
      .st0 {
        fill: #fff;
      }
    </style>
  </defs>
  <path class="st0" d="M290.4,201.4c0-19.6-13.8-30.5-38.2-30.5h-44.9c0,0,0,63.2,0,63.2h37.8c29.2,0,45.3-13.1,45.3-32.7Z"/>
  <path class="st0" d="M251.9,259.2h-44.5v69.8h46.4c30.4,0,46.5-12.1,46.5-35.1s-16.5-34.7-48.4-34.7Z"/>
  <path class="st0" d="M453.7,190.1c-8.5-27.5-9.7-61.2-8.8-87.2.9-27.1-20.2-52.1-48.7-52.1H103.9c-28.5,0-49.6,25-48.7,52.1h-.1c.9,26-.3,59.7-8.8,87.2S23.4,235.1,0,237.3v25.4c23.5,2.2,37.9,19.6,46.4,47.2,8.5,27.5,9.7,61.2,8.8,87.2-.9,27.1,20.2,52.1,48.7,52.1h292.4c28.5,0,49.6-25,48.7-52.1-.9-26,.3-59.7,8.8-87.2s22.9-45,46.4-47.2v-25.4c-23.5-2.2-37.9-19.6-46.4-47.2ZM260.8,355.9h-87.1v-211.9h86.7c38.5,0,63.8,20.9,63.8,52.9s-17,42.6-38.7,46.1v1.2c29.4,3.2,49.3,14.5,49.3,51.8s-27.8,59.9-74,59.9Z"/>
</svg>