<?xml version="1.0" encoding="UTF-8"?>
<svg id="Layer_1" xmlns="http://www.w3.org/2000/svg" version="1.1" viewBox="0 0 500 500">
  <!-- Generator: Adobe Illustrator 29.1.0, SVG Export Plug-In . SVG Version: 2.1.0 Build 142)  -->
  <defs>
    <style>
      .st0 {
        fill: #fff;
      }
    </style>
  </defs>
  <g id="layer1">
    <g id="g3013">
      <path class="st0" d="M72.9,98.3l32.2,361.5,144.7,40.2,145-40.2,32.3-361.5H72.9ZM367.2,436.8l-117.2,32.5v-46.1h-.2c0,0-90.8-25.1-90.8-25.1l-6.3-69.6h44.6l3.1,35.3,49.4,13.4h.2v-70.9h-99.2l-4-44.4h103.2v-45.4h-107.2l-4-44.3h111.2v-44.4h144.8l-27.6,309Z"/>
      <path id="path2999" class="st0" d="M156.2,0h53.7v22.5h-31.2v22.5h31.2v22.5h-53.7V0Z"/>
      <path id="path3001" class="st0" d="M220.7,0h53.7v19.5h-31.2v3.9h31.2v44.9h-53.7v-20.5h31.2v-3.9h-31.2V0Z"/>
      <path id="path3003" class="st0" d="M285.2,0h53.7v19.5h-31.2v3.9h31.2v44.9h-53.7v-20.5h31.2v-3.9h-31.2V0Z"/>
      <polygon id="polygon3005" class="st0" points="304.5 306.3 299.3 363.8 249.8 377.1 249.8 423.3 340.8 398.1 341.4 390.6 351.8 273.8 352.9 261.9 360.9 172.2 249.8 172.2 249.8 216.5 312.3 216.5 308.3 261.9 249.8 261.9 249.8 306.3 304.5 306.3"/>
    </g>
  </g>
</svg>