<?xml version="1.0" encoding="UTF-8"?>
<svg id="Layer_1" xmlns="http://www.w3.org/2000/svg" version="1.1" viewBox="0 0 500 500">
  <!-- Generator: Adobe Illustrator 29.1.0, SVG Export Plug-In . SVG Version: 2.1.0 Build 142)  -->
  <defs>
    <style>
      .st0 {
        fill: #fff;
      }
    </style>
  </defs>
  <path class="st0" d="M105.8,0h22.4v22.2h20.7V0h22.4v67.4h-22.4v-22.4h-20.5v22.4h-22.6M201.1,22.4h-19.8V0h62.2v22.4h-19.9v44.9h-22.4M253.4,0h23.6l14.4,23.8,14.4-23.8h23.6v67.4h-22.4v-33.4l-15.7,24.2-15.7-24.2v33.4h-22M340.6,0h22.4v45.1h31.9v22.2h-54.3"/>
  <g>
    <polygon class="st0" points="187.3 216.5 191.4 261.9 250 261.9 250 216.5 187.3 216.5"/>
    <path class="st0" d="M72.8,98.3l32.3,361.6,144.5,40.2,145.2-40.3,32.3-361.5H72.8ZM367.1,436.6l-117.1,32.7v-45.8l-90.9-25.4-6.3-69.7h44.6l3.1,35.5,49.5,13.3v-71h-99.2l-12.2-134.1h111.4v-44.1h144.8l-27.7,308.6Z"/>
  </g>
  <path class="st0" d="M361,172.1h-111.2v44.4h107.1M352.9,261.9h-103.1v44.4h54.7l-5.2,57.6-49.5,13.3v46.1l90.8-25.2"/>
</svg>