<?xml version="1.0" encoding="UTF-8"?>
<svg id="Layer_1" xmlns="http://www.w3.org/2000/svg" version="1.1" xmlns:xlink="http://www.w3.org/1999/xlink" viewBox="0 0 500 500">
  <!-- Generator: Adobe Illustrator 29.1.0, SVG Export Plug-In . SVG Version: 2.1.0 Build 142)  -->
  <defs>
    <style>
      .st0 {
        fill: #fff;
        fill-rule: evenodd;
      }

      .st1 {
        fill: none;
      }

      .st2 {
        clip-path: url(#clippath);
      }
    </style>
    <clipPath id="clippath">
      <rect class="st1" y="100" width="500" height="300"/>
    </clipPath>
  </defs>
  <g class="st2">
    <path class="st0" d="M250,100c-66.7,0-108.3,33.3-125,100,25-33.3,54.2-45.8,87.5-37.5,19,4.8,32.6,18.6,47.7,33.8,24.5,24.9,52.9,53.7,114.8,53.7s108.3-33.3,125-100c-25,33.3-54.2,45.8-87.5,37.5-19-4.8-32.6-18.6-47.7-33.8-24.5-24.9-52.9-53.7-114.8-53.7h0ZM125,250c-66.7,0-108.3,33.3-125,100,25-33.3,54.2-45.8,87.5-37.5,19,4.8,32.6,18.6,47.7,33.8,24.5,24.9,52.9,53.7,114.8,53.7s108.3-33.3,125-100c-25,33.3-54.2,45.8-87.5,37.5-19-4.8-32.6-18.6-47.7-33.8-24.5-24.9-52.9-53.7-114.8-53.7h0Z"/>
  </g>
</svg>