<?xml version="1.0" encoding="UTF-8"?>
<svg id="Layer_1" xmlns="http://www.w3.org/2000/svg" version="1.1" viewBox="0 0 500 500">
  <!-- Generator: Adobe Illustrator 29.1.0, SVG Export Plug-In . SVG Version: 2.1.0 Build 142)  -->
  <defs>
    <style>
      .st0, .st1 {
        fill: #fff;
        fill-rule: evenodd;
      }

      .st1 {
        isolation: isolate;
      }
    </style>
  </defs>
  <path class="st0" d="M500,249.8l-54.3,91.4-76.2-92.7,76.2-90.2,54.3,91.4h0Z"/>
  <path class="st0" d="M439.8,356.9l-82.7-98.9-49.6,83,77.1,112.7,55.2-96.8h0Z"/>
  <path class="st0" d="M438.8,142.2l-81.8,99.3-49.6-83,77.1-111.4,54.3,95.2h0Z"/>
  <path class="st1" d="M189.5,142.2h249.4l-54.9-95.8h-139.5l-54.9,95.8h-.1ZM357.1,241.7h138l-49.6-83.6h-138.3"/>
  <path class="st1" d="M439.8,357.2h-250.6l54.9,95.2h140.4l55.2-95.2h.1ZM357.1,257.6h138l-49.6,83.6h-138.3"/>
  <path class="st0" d="M244.1,452.4l-117.4-202.9L245.6,46.7H117L0,249.5l117,202.9h127.1Z"/>
</svg>